# xmcd
#
# Track frame offsets:
#	150
#	14892
#	32037
#	48775
#	66472
#	82408
#	97583
#	118985
#	132685
#	148645
#	165082
#	186267
#
# Disc length: 2724 seconds
# Revision: 1
# Processed by: cddbd v1.5.2PL0 Copyright (c) Steve Scherf et al.
# Submitted via: dBpowerAMP V12.0
#
DISCID=ad0aa20c
DTITLE=James Blundell - Deluge
DYEAR=2005
DGENRE=Australiana
TTITLE0=Deluge
TTITLE1=Fight Naked
TTITLE2=Lunatic for Love
TTITLE3=Postcards from Saigon
TTITLE4=Greylands
TTITLE5=Any Other Way
TTITLE6=Ain't Got Love
TTITLE7=24 Love Affair
TTITLE8=Love Gets in the Way
TTITLE9=Be Strong
TTITLE10=Back It Up
TTITLE11=All Up to Me
EXTD=
EXTT0=
EXTT1=
EXTT2=
EXTT3=
EXTT4=
EXTT5=
EXTT6=
EXTT7=
EXTT8=
EXTT9=
EXTT10=
EXTT11=
PLAYORDER=
